<svg width="200" height="200" fill="#000000" xmlns="http://www.w3.org/2000/svg" xmlns:xlink="http://www.w3.org/1999/xlink" version="1.1" x="0px" y="0px" viewBox="0 0 100 100" enable-background="new 0 0 100 100" xml:space="preserve"><path d="M58.709,26.899h-6.114c-0.675,0-1.223-0.547-1.223-1.223v-6.114c0-0.675,0.548-1.223,1.223-1.223h6.114  c0.675,0,1.223,0.548,1.223,1.223v6.114C59.932,26.352,59.384,26.899,58.709,26.899z M53.818,24.454h3.668v-3.668h-3.668V24.454z"/><path d="M58.709,39.128h-6.114c-0.675,0-1.223-0.548-1.223-1.223v-6.114c0-0.675,0.548-1.223,1.223-1.223h6.114  c0.675,0,1.223,0.547,1.223,1.223v6.114C59.932,38.581,59.384,39.128,58.709,39.128z M53.818,36.682h3.668v-3.668h-3.668V36.682z"/><path d="M83.74,11.71L65.53,5.65L65.4,5.6c-0.03-0.02-0.05-0.02-0.08-0.03c-0.06-0.01-0.13-0.03-0.19-0.03  c-0.11-0.03-0.21-0.04-0.32-0.04H22.02c-1.01,0-1.83,0.82-1.83,1.83v85.6c0,1.02,0.82,1.84,1.83,1.84h61.15  c1.01,0,1.83-0.82,1.83-1.84V13.45C85,12.65,84.5,11.96,83.74,11.71z M62.99,91.1H23.86V45.27l21.98,21.98H34.25  c-0.67,0-1.22,0.55-1.22,1.23V80.7c0,0.68,0.55,1.23,1.22,1.23h18.34c0.68,0,1.23-0.55,1.23-1.23v-5.47l9.17,9.18V91.1z M51.37,69.7  l0.31,7.03h-15.9l-0.3-7.03H51.37z M23.86,42.45V17.39l27.51,27.52v5.22c0,0.68,0.55,1.23,1.22,1.23h5.24l5.16,5.17v25.04  l-9.17-9.16v-3.93c0-0.68-0.55-1.23-1.23-1.23h-3.93 M53.82,48.91v-3.67h3.67v3.67H53.82z M62.99,53.7l-3.14-3.14  c0.05-0.13,0.08-0.28,0.08-0.43v-6.11c0-0.68-0.55-1.22-1.22-1.22h-6.12c-0.15,0-0.29,0.03-0.42,0.08L23.86,14.57v-5.4h39.13V53.7z   M66.66,91.1v-0.71l0.71,0.71H66.66z M70.84,91.1l-4.18-4.18v-2.63l6.82,6.81H70.84z M76.95,91.1L66.66,80.8v-2.64L79.6,91.1H76.95z   M81.33,89.36L66.66,74.69v-2.64l14.67,14.67V89.36z M81.33,83.25L66.66,68.57v-2.64l14.67,14.68V83.25z M81.33,77.13L66.66,62.46  v-2.64l14.67,14.67V77.13z M81.33,71.02L66.66,56.35V53.7l14.67,14.68V71.02z M81.33,64.91L66.66,50.23v-2.64l14.67,14.67V64.91z   M81.33,58.79L66.66,44.12v-2.64l14.67,14.67V58.79z M81.33,52.68L66.66,38v-2.64l14.67,14.68V52.68z M81.33,46.56L66.66,31.89  v-2.64l14.67,14.67V46.56z M81.33,40.45L66.66,25.77v-2.64l14.67,14.68V40.45z M81.33,34.33L66.66,19.66v-2.64l14.67,14.67V34.33z   M81.33,28.22L66.66,13.55V10.9l14.67,14.68V28.22z M81.33,22.11l-11-11.01l3.97,1.32l7.03,7.04V22.11z M81.33,15.99l-1.83-1.83  l1.83,0.61V15.99z"/><polygon points="48.183,46.814 28.433,27.064 28.433,40.582 61,73.125 61,65.584 48.148,52.584 "/></svg>